# xmcd CD database file
#
# Track frame offsets:
#	150
#	58050
#	74800
#	141794
#	165625
#	212565
#
# Disc length: 3127 seconds
#
# Revision: 1
# Processed by: cddbd v1.5.2PL0 Copyright (c) Steve Scherf et al.
# Submitted via: CDex 1.51
#
DISCID=5c0c3506
DTITLE=Ken Aldcroft's Convergence Ensemble - Saskatoon
DYEAR=2013
DGENRE=Jazz
TTITLE0=Our Hospitality
TTITLE1=Trolleys
TTITLE2=A Refreshing Night
TTITLE3=X Marks the Spot
TTITLE4=Reminiscent
TTITLE5=The Yanks are Coming
EXTD=YEAR: 2013
EXTT0=
EXTT1=
EXTT2=
EXTT3=
EXTT4=
EXTT5=
PLAYORDER=
